<?xml version="1.0" encoding="UTF-8" standalone="no"?>
<!DOCTYPE svg PUBLIC "-//W3C//DTD SVG 1.1//EN"
 "http://www.w3.org/Graphics/SVG/1.1/DTD/svg11.dtd">
<!-- Generated by graphviz version 11.0.0 (20240428.1522)
 -->
<!-- Title: alg Pages: 1 -->
<svg width="115pt" height="211pt"
 viewBox="0.00 0.00 114.65 210.50" xmlns="http://www.w3.org/2000/svg" xmlns:xlink="http://www.w3.org/1999/xlink">
<g id="graph0" class="graph" transform="scale(1 1) rotate(0) translate(4 206.5)">
<title>alg</title>
<polygon fill="white" stroke="none" points="-4,4 -4,-206.5 110.65,-206.5 110.65,4 -4,4"/>
<!-- m101 -->
<g id="node1" class="node">
<title>m101</title>
<g id="a_node1"><a xlink:title="com.doertutorial.OrderProcessor.saveNewOrder">
<polygon fill="#e9ecef" stroke="#343a40" points="93.15,-202.5 13.5,-202.5 13.5,-176.85 93.15,-176.85 93.15,-202.5"/>
<text text-anchor="middle" x="53.33" y="-185.8" font-family="Helvetica,sans-Serif" font-size="10.00" fill="#212529">saveNewOrder</text>
</a>
</g>
</g>
<!-- s501 -->
<g id="node3" class="node">
<title>s501</title>
<g id="a_node3"><a xlink:title="New order created">
<ellipse fill="white" stroke="black" cx="53.33" cy="-130.05" rx="10.8" ry="10.8"/>
<text text-anchor="middle" x="53.33" y="-126.18" font-family="Helvetica,sans-Serif" font-size="10.00" fill="#212529"> </text>
</a>
</g>
</g>
<!-- m101&#45;&gt;s501 -->
<g id="edge1" class="edge">
<title>m101&#45;&gt;s501</title>
<path fill="none" stroke="black" stroke-width="0.8" d="M53.33,-176.45C53.33,-169.44 53.33,-160.44 53.33,-152.3"/>
<polygon fill="black" stroke="black" stroke-width="0.8" points="53.33,-142.3 57.83,-152.3 53.33,-146.33 53.33,-152.3 53.33,-152.3 53.33,-152.3 53.33,-146.33 48.83,-152.3 53.33,-142.3"/>
</g>
<!-- m102 -->
<g id="node2" class="node">
<title>m102</title>
<g id="a_node2"><a xlink:title="com.doertutorial.OrderProcessor.startOrderProcessing">
<polygon fill="#e9ecef" stroke="#343a40" points="106.65,-83.25 0,-83.25 0,-57.6 106.65,-57.6 106.65,-83.25"/>
<text text-anchor="middle" x="53.33" y="-66.55" font-family="Helvetica,sans-Serif" font-size="10.00" fill="#212529">startOrderProcessing</text>
</a>
</g>
</g>
<!-- n502 -->
<g id="node4" class="node">
<title>n502</title>
<g id="a_node4"><a xlink:title="null">
<polygon fill="none" stroke="none" points="80.33,-21.6 26.33,-21.6 26.33,0 80.33,0 80.33,-21.6"/>
<text text-anchor="middle" x="53.33" y="-5.3" font-family="Helvetica,sans-Serif" font-size="20.00" fill="red">❌</text>
</a>
</g>
</g>
<!-- m102&#45;&gt;n502 -->
<g id="edge3" class="edge">
<title>m102&#45;&gt;n502</title>
<path fill="none" stroke="black" stroke-width="0.8" d="M53.33,-57.2C53.33,-49.93 53.33,-40.51 53.33,-32.14"/>
<polygon fill="black" stroke="black" stroke-width="0.8" points="53.33,-22.31 57.83,-32.31 53.33,-26.34 53.33,-32.31 53.33,-32.31 53.33,-32.31 53.33,-26.34 48.83,-32.31 53.33,-22.31"/>
</g>
<!-- s501&#45;&gt;m102 -->
<g id="edge2" class="edge">
<title>s501&#45;&gt;m102</title>
<path fill="none" stroke="black" stroke-width="0.8" d="M53.33,-119.01C53.33,-112.18 53.33,-102.86 53.33,-94.28"/>
<polygon fill="black" stroke="black" stroke-width="0.8" points="53.33,-84.31 57.83,-94.31 53.33,-88.34 53.33,-94.31 53.33,-94.31 53.33,-94.31 53.33,-88.34 48.83,-94.31 53.33,-84.31"/>
</g>
</g>
</svg>
