<?xml version="1.0" encoding="UTF-8" standalone="no"?>
<!DOCTYPE svg PUBLIC "-//W3C//DTD SVG 1.1//EN"
 "http://www.w3.org/Graphics/SVG/1.1/DTD/svg11.dtd">
<!-- Generated by graphviz version 12.2.1 (20241206.2353)
 -->
<!-- Title: alg Pages: 1 -->
<svg width="412pt" height="1045pt"
 viewBox="0.00 0.00 411.52 1045.25" xmlns="http://www.w3.org/2000/svg" xmlns:xlink="http://www.w3.org/1999/xlink">
<g id="graph0" class="graph" transform="scale(1 1) rotate(0) translate(4 1041.25)">
<title>alg</title>
<polygon fill="white" stroke="none" points="-4,4 -4,-1041.25 407.52,-1041.25 407.52,4 -4,4"/>
<!-- m101 -->
<g id="node1" class="node">
<title>m101</title>
<g id="a_node1"><a xlink:title="com.doertutorial.OrderProcessor.cancelPayment">
<polygon fill="#e9ecef" stroke="#343a40" points="312.15,-321.75 230.25,-321.75 230.25,-296.1 312.15,-296.1 312.15,-321.75"/>
<text text-anchor="middle" x="271.2" y="-305.05" font-family="Helvetica,sans-Serif" font-size="10.00" fill="#212529">cancelPayment</text>
</a>
</g>
</g>
<!-- s509 -->
<g id="node21" class="node">
<title>s509</title>
<g id="a_node21"><a xlink:title="Payment cancelled">
<ellipse fill="white" stroke="black" cx="271.2" cy="-249.3" rx="10.8" ry="10.8"/>
<text text-anchor="middle" x="271.2" y="-245.43" font-family="Helvetica,sans-Serif" font-size="10.00" fill="#212529"> </text>
</a>
</g>
</g>
<!-- m101&#45;&gt;s509 -->
<g id="edge4" class="edge">
<title>m101&#45;&gt;s509</title>
<path fill="none" stroke="black" stroke-width="0.8" d="M265.56,-295.7C264.42,-288.16 264.16,-278.32 264.78,-269.73"/>
<polygon fill="black" stroke="black" stroke-width="0.8" points="266.05,-260.09 269.2,-270.59 265.52,-264.08 264.74,-270 264.74,-270 264.74,-270 265.52,-264.08 260.28,-269.42 266.05,-260.09"/>
</g>
<!-- m101&#45;&gt;s509 -->
<g id="edge5" class="edge">
<title>m101&#45;&gt;s509</title>
<g id="a_edge5"><a xlink:title="[after retry] every 5s during 10s">
<path fill="none" stroke="red" stroke-width="0.8" d="M276.84,-295.7C277.98,-288.16 278.24,-278.32 277.62,-269.73"/>
<polygon fill="red" stroke="red" stroke-width="0.8" points="276.35,-260.09 282.12,-269.42 276.88,-264.08 277.66,-270 277.66,-270 277.66,-270 276.88,-264.08 273.2,-270.59 276.35,-260.09"/>
</a>
</g>
</g>
<!-- m102 -->
<g id="node2" class="node">
<title>m102</title>
<g id="a_node2"><a xlink:title="com.doertutorial.OrderProcessor.cancelReservation">
<polygon fill="#e9ecef" stroke="#343a40" points="318.9,-202.5 223.5,-202.5 223.5,-176.85 318.9,-176.85 318.9,-202.5"/>
<text text-anchor="middle" x="271.2" y="-185.8" font-family="Helvetica,sans-Serif" font-size="10.00" fill="#212529">cancelReservation</text>
</a>
</g>
</g>
<!-- s510 -->
<g id="node22" class="node">
<title>s510</title>
<g id="a_node22"><a xlink:title="Reservation cancelled">
<ellipse fill="white" stroke="black" cx="271.2" cy="-130.05" rx="10.8" ry="10.8"/>
<text text-anchor="middle" x="271.2" y="-126.18" font-family="Helvetica,sans-Serif" font-size="10.00" fill="#212529"> </text>
</a>
</g>
</g>
<!-- m102&#45;&gt;s510 -->
<g id="edge7" class="edge">
<title>m102&#45;&gt;s510</title>
<path fill="none" stroke="black" stroke-width="0.8" d="M265.56,-176.45C264.42,-168.91 264.16,-159.07 264.78,-150.48"/>
<polygon fill="black" stroke="black" stroke-width="0.8" points="266.05,-140.84 269.2,-151.34 265.52,-144.83 264.74,-150.75 264.74,-150.75 264.74,-150.75 265.52,-144.83 260.28,-150.17 266.05,-140.84"/>
</g>
<!-- m102&#45;&gt;s510 -->
<g id="edge8" class="edge">
<title>m102&#45;&gt;s510</title>
<g id="a_edge8"><a xlink:title="[after retry] every 5s during 10s">
<path fill="none" stroke="red" stroke-width="0.8" d="M276.84,-176.45C277.98,-168.91 278.24,-159.07 277.62,-150.48"/>
<polygon fill="red" stroke="red" stroke-width="0.8" points="276.35,-140.84 282.12,-150.17 276.88,-144.83 277.66,-150.75 277.66,-150.75 277.66,-150.75 276.88,-144.83 273.2,-151.34 276.35,-140.84"/>
</a>
</g>
</g>
<!-- m103 -->
<g id="node3" class="node">
<title>m103</title>
<g id="a_node3"><a xlink:title="com.doertutorial.OrderProcessor.finishOrderProcessing">
<polygon fill="#e9ecef" stroke="#343a40" points="110.4,-441 0,-441 0,-415.35 110.4,-415.35 110.4,-441"/>
<text text-anchor="middle" x="55.2" y="-424.3" font-family="Helvetica,sans-Serif" font-size="10.00" fill="#212529">finishOrderProcessing</text>
</a>
</g>
</g>
<!-- n514 -->
<g id="node26" class="node">
<title>n514</title>
<g id="a_node26"><a xlink:title="null">
<polygon fill="none" stroke="none" points="82.2,-379.35 28.2,-379.35 28.2,-357.75 82.2,-357.75 82.2,-379.35"/>
<text text-anchor="middle" x="55.2" y="-363.05" font-family="Helvetica,sans-Serif" font-size="20.00" fill="red">❌</text>
</a>
</g>
</g>
<!-- m103&#45;&gt;n514 -->
<g id="edge10" class="edge">
<title>m103&#45;&gt;n514</title>
<path fill="none" stroke="black" stroke-width="0.8" d="M55.2,-414.95C55.2,-407.68 55.2,-398.26 55.2,-389.89"/>
<polygon fill="black" stroke="black" stroke-width="0.8" points="55.2,-380.06 59.7,-390.06 55.2,-384.09 55.2,-390.06 55.2,-390.06 55.2,-390.06 55.2,-384.09 50.7,-390.06 55.2,-380.06"/>
</g>
<!-- m104 -->
<g id="node4" class="node">
<title>m104</title>
<g id="a_node4"><a xlink:title="com.doertutorial.OrderProcessor.payOrder">
<polygon fill="#e9ecef" stroke="#343a40" points="267.27,-679.5 213.12,-679.5 213.12,-653.85 267.27,-653.85 267.27,-679.5"/>
<text text-anchor="middle" x="240.2" y="-662.8" font-family="Helvetica,sans-Serif" font-size="10.00" fill="#212529">payOrder</text>
</a>
</g>
</g>
<!-- s503 -->
<g id="node15" class="node">
<title>s503</title>
<g id="a_node15"><a xlink:title="Order paid">
<ellipse fill="white" stroke="black" cx="173.2" cy="-607.05" rx="10.8" ry="10.8"/>
<text text-anchor="middle" x="173.2" y="-603.17" font-family="Helvetica,sans-Serif" font-size="10.00" fill="#212529"> </text>
</a>
</g>
</g>
<!-- m104&#45;&gt;s503 -->
<g id="edge12" class="edge">
<title>m104&#45;&gt;s503</title>
<path fill="none" stroke="black" stroke-width="0.8" d="M225.99,-653.45C215.2,-644.17 200.36,-631.41 189.16,-621.78"/>
<polygon fill="black" stroke="black" stroke-width="0.8" points="181.85,-615.49 192.36,-618.6 184.9,-618.11 189.43,-622.01 189.43,-622.01 189.43,-622.01 184.9,-618.11 186.49,-625.42 181.85,-615.49"/>
</g>
<!-- s513 -->
<g id="node25" class="node">
<title>s513</title>
<g id="a_node25"><a xlink:title="Payment failed">
<ellipse fill="white" stroke="black" cx="246.2" cy="-607.05" rx="10.8" ry="10.8"/>
<text text-anchor="middle" x="246.2" y="-603.17" font-family="Helvetica,sans-Serif" font-size="10.00" fill="#212529"> </text>
</a>
</g>
</g>
<!-- m104&#45;&gt;s513 -->
<g id="edge13" class="edge">
<title>m104&#45;&gt;s513</title>
<g id="a_edge13"><a xlink:title="[after retry] every 5s during 10s">
<path fill="none" stroke="red" stroke-width="0.8" d="M241.47,-653.45C242.22,-646.27 243.19,-636.99 244.05,-628.7"/>
<polygon fill="red" stroke="red" stroke-width="0.8" points="245.07,-618.93 248.51,-629.34 244.65,-622.93 244.03,-628.87 244.03,-628.87 244.03,-628.87 244.65,-622.93 239.56,-628.41 245.07,-618.93"/>
</a>
</g>
</g>
<!-- m105 -->
<g id="node5" class="node">
<title>m105</title>
<g id="a_node5"><a xlink:title="com.doertutorial.OrderProcessor.rejectOrder">
<polygon fill="#e9ecef" stroke="#343a40" points="302.4,-83.25 240,-83.25 240,-57.6 302.4,-57.6 302.4,-83.25"/>
<text text-anchor="middle" x="271.2" y="-66.55" font-family="Helvetica,sans-Serif" font-size="10.00" fill="#212529">rejectOrder</text>
</a>
</g>
</g>
<!-- n515 -->
<g id="node27" class="node">
<title>n515</title>
<g id="a_node27"><a xlink:title="null">
<polygon fill="none" stroke="none" points="298.2,-21.6 244.2,-21.6 244.2,0 298.2,0 298.2,-21.6"/>
<text text-anchor="middle" x="271.2" y="-5.3" font-family="Helvetica,sans-Serif" font-size="20.00" fill="red">❌</text>
</a>
</g>
</g>
<!-- m105&#45;&gt;n515 -->
<g id="edge15" class="edge">
<title>m105&#45;&gt;n515</title>
<path fill="none" stroke="black" stroke-width="0.8" d="M271.2,-57.2C271.2,-49.93 271.2,-40.51 271.2,-32.14"/>
<polygon fill="black" stroke="black" stroke-width="0.8" points="271.2,-22.31 275.7,-32.31 271.2,-26.34 271.2,-32.31 271.2,-32.31 271.2,-32.31 271.2,-26.34 266.7,-32.31 271.2,-22.31"/>
</g>
<!-- m106 -->
<g id="node6" class="node">
<title>m106</title>
<g id="a_node6"><a xlink:title="com.doertutorial.OrderProcessor.reportNoGoodsForOrder">
<polygon fill="#e9ecef" stroke="#343a40" points="403.52,-679.5 284.88,-679.5 284.88,-653.85 403.52,-653.85 403.52,-679.5"/>
<text text-anchor="middle" x="344.2" y="-662.8" font-family="Helvetica,sans-Serif" font-size="10.00" fill="#212529">reportNoGoodsForOrder</text>
</a>
</g>
</g>
<!-- s506 -->
<g id="node18" class="node">
<title>s506</title>
<g id="a_node18"><a xlink:title="Rejected No Goods">
<ellipse fill="white" stroke="black" cx="344.2" cy="-547.42" rx="10.8" ry="10.8"/>
<text text-anchor="middle" x="344.2" y="-543.55" font-family="Helvetica,sans-Serif" font-size="10.00" fill="#212529"> </text>
</a>
</g>
</g>
<!-- m106&#45;&gt;s506 -->
<g id="edge17" class="edge">
<title>m106&#45;&gt;s506</title>
<path fill="none" stroke="black" stroke-width="0.8" d="M344.2,-653.57C344.2,-633.66 344.2,-593.76 344.2,-569.25"/>
<polygon fill="black" stroke="black" stroke-width="0.8" points="344.2,-559.58 348.7,-569.58 344.2,-563.6 344.2,-569.58 344.2,-569.58 344.2,-569.58 344.2,-563.6 339.7,-569.58 344.2,-559.58"/>
</g>
<!-- m107 -->
<g id="node7" class="node">
<title>m107</title>
<g id="a_node7"><a xlink:title="com.doertutorial.OrderProcessor.reportNoPaymentForOrder">
<polygon fill="#e9ecef" stroke="#343a40" points="315.77,-560.25 186.62,-560.25 186.62,-534.6 315.77,-534.6 315.77,-560.25"/>
<text text-anchor="middle" x="251.2" y="-543.55" font-family="Helvetica,sans-Serif" font-size="10.00" fill="#212529">reportNoPaymentForOrder</text>
</a>
</g>
</g>
<!-- s507 -->
<g id="node19" class="node">
<title>s507</title>
<g id="a_node19"><a xlink:title="Rejected No Payment">
<ellipse fill="white" stroke="black" cx="271.2" cy="-428.18" rx="10.8" ry="10.8"/>
<text text-anchor="middle" x="271.2" y="-424.3" font-family="Helvetica,sans-Serif" font-size="10.00" fill="#212529"> </text>
</a>
</g>
</g>
<!-- m107&#45;&gt;s507 -->
<g id="edge19" class="edge">
<title>m107&#45;&gt;s507</title>
<path fill="none" stroke="black" stroke-width="0.8" d="M253.27,-534.32C256.68,-514.31 263.54,-474.11 267.71,-449.63"/>
<polygon fill="black" stroke="black" stroke-width="0.8" points="269.36,-439.99 272.11,-450.6 268.68,-443.96 267.67,-449.85 267.67,-449.85 267.67,-449.85 268.68,-443.96 263.24,-449.09 269.36,-439.99"/>
</g>
<!-- m108 -->
<g id="node8" class="node">
<title>m108</title>
<g id="a_node8"><a xlink:title="com.doertutorial.OrderProcessor.reportOrderNotShipped">
<polygon fill="#e9ecef" stroke="#343a40" points="242.27,-441 128.12,-441 128.12,-415.35 242.27,-415.35 242.27,-441"/>
<text text-anchor="middle" x="185.2" y="-424.3" font-family="Helvetica,sans-Serif" font-size="10.00" fill="#212529">reportOrderNotShipped</text>
</a>
</g>
</g>
<!-- s508 -->
<g id="node20" class="node">
<title>s508</title>
<g id="a_node20"><a xlink:title="Rejected No Shipping">
<ellipse fill="white" stroke="black" cx="209.2" cy="-368.55" rx="10.8" ry="10.8"/>
<text text-anchor="middle" x="209.2" y="-364.68" font-family="Helvetica,sans-Serif" font-size="10.00" fill="#212529"> </text>
</a>
</g>
</g>
<!-- m108&#45;&gt;s508 -->
<g id="edge21" class="edge">
<title>m108&#45;&gt;s508</title>
<path fill="none" stroke="black" stroke-width="0.8" d="M190.29,-414.95C193.42,-407.43 197.51,-397.61 201.09,-389.03"/>
<polygon fill="black" stroke="black" stroke-width="0.8" points="204.85,-379.99 205.16,-390.95 203.3,-383.71 201.01,-389.22 201.01,-389.22 201.01,-389.22 203.3,-383.71 196.85,-387.49 204.85,-379.99"/>
</g>
<!-- m109 -->
<g id="node9" class="node">
<title>m109</title>
<g id="a_node9"><a xlink:title="com.doertutorial.OrderProcessor.reserveGoods">
<polygon fill="#e9ecef" stroke="#343a40" points="329.77,-798.75 254.62,-798.75 254.62,-773.1 329.77,-773.1 329.77,-798.75"/>
<text text-anchor="middle" x="292.2" y="-782.05" font-family="Helvetica,sans-Serif" font-size="10.00" fill="#212529">reserveGoods</text>
</a>
</g>
</g>
<!-- s501 -->
<g id="node13" class="node">
<title>s501</title>
<g id="a_node13"><a xlink:title="Goods reserved">
<ellipse fill="white" stroke="black" cx="272.2" cy="-726.3" rx="10.8" ry="10.8"/>
<text text-anchor="middle" x="272.2" y="-722.42" font-family="Helvetica,sans-Serif" font-size="10.00" fill="#212529"> </text>
</a>
</g>
</g>
<!-- m109&#45;&gt;s501 -->
<g id="edge23" class="edge">
<title>m109&#45;&gt;s501</title>
<path fill="none" stroke="black" stroke-width="0.8" d="M287.96,-772.7C285.38,-765.26 282.01,-755.58 279.06,-747.07"/>
<polygon fill="black" stroke="black" stroke-width="0.8" points="275.83,-737.76 283.36,-745.73 277.15,-741.56 279.11,-747.21 279.11,-747.21 279.11,-747.21 277.15,-741.56 274.86,-748.68 275.83,-737.76"/>
</g>
<!-- s511 -->
<g id="node23" class="node">
<title>s511</title>
<g id="a_node23"><a xlink:title="No Goods">
<ellipse fill="white" stroke="black" cx="328.2" cy="-726.3" rx="10.8" ry="10.8"/>
<text text-anchor="middle" x="328.2" y="-722.42" font-family="Helvetica,sans-Serif" font-size="10.00" fill="#212529"> </text>
</a>
</g>
</g>
<!-- m109&#45;&gt;s511 -->
<g id="edge24" class="edge">
<title>m109&#45;&gt;s511</title>
<g id="a_edge24"><a xlink:title="[after retry] every 5s during 5s">
<path fill="none" stroke="red" stroke-width="0.8" d="M299.83,-772.7C304.81,-764.73 311.4,-754.2 316.97,-745.28"/>
<polygon fill="red" stroke="red" stroke-width="0.8" points="322.17,-736.95 320.69,-747.81 320.04,-740.36 316.87,-745.43 316.87,-745.43 316.87,-745.43 320.04,-740.36 313.06,-743.05 322.17,-736.95"/>
</a>
</g>
</g>
<!-- m110 -->
<g id="node10" class="node">
<title>m110</title>
<g id="a_node10"><a xlink:title="com.doertutorial.OrderProcessor.saveNewOrder">
<polygon fill="#e9ecef" stroke="#343a40" points="332.02,-1037.25 252.38,-1037.25 252.38,-1011.6 332.02,-1011.6 332.02,-1037.25"/>
<text text-anchor="middle" x="292.2" y="-1020.55" font-family="Helvetica,sans-Serif" font-size="10.00" fill="#212529">saveNewOrder</text>
</a>
</g>
</g>
<!-- s502 -->
<g id="node14" class="node">
<title>s502</title>
<g id="a_node14"><a xlink:title="New order created">
<ellipse fill="white" stroke="black" cx="292.2" cy="-964.8" rx="10.8" ry="10.8"/>
<text text-anchor="middle" x="292.2" y="-960.92" font-family="Helvetica,sans-Serif" font-size="10.00" fill="#212529"> </text>
</a>
</g>
</g>
<!-- m110&#45;&gt;s502 -->
<g id="edge25" class="edge">
<title>m110&#45;&gt;s502</title>
<path fill="none" stroke="black" stroke-width="0.8" d="M292.2,-1011.2C292.2,-1004.19 292.2,-995.19 292.2,-987.05"/>
<polygon fill="black" stroke="black" stroke-width="0.8" points="292.2,-977.05 296.7,-987.05 292.2,-981.08 292.2,-987.05 292.2,-987.05 292.2,-987.05 292.2,-981.08 287.7,-987.05 292.2,-977.05"/>
</g>
<!-- m111 -->
<g id="node11" class="node">
<title>m111</title>
<g id="a_node11"><a xlink:title="com.doertutorial.OrderProcessor.shipOrder">
<polygon fill="#e9ecef" stroke="#343a40" points="168.4,-560.25 112,-560.25 112,-534.6 168.4,-534.6 168.4,-560.25"/>
<text text-anchor="middle" x="140.2" y="-543.55" font-family="Helvetica,sans-Serif" font-size="10.00" fill="#212529">shipOrder</text>
</a>
</g>
</g>
<!-- s505 -->
<g id="node17" class="node">
<title>s505</title>
<g id="a_node17"><a xlink:title="Order shipped">
<ellipse fill="white" stroke="black" cx="94.2" cy="-487.8" rx="10.8" ry="10.8"/>
<text text-anchor="middle" x="94.2" y="-483.93" font-family="Helvetica,sans-Serif" font-size="10.00" fill="#212529"> </text>
</a>
</g>
</g>
<!-- m111&#45;&gt;s505 -->
<g id="edge27" class="edge">
<title>m111&#45;&gt;s505</title>
<path fill="none" stroke="black" stroke-width="0.8" d="M130.44,-534.2C123.72,-525.78 114.7,-514.48 107.35,-505.27"/>
<polygon fill="black" stroke="black" stroke-width="0.8" points="101.3,-497.69 111.05,-502.7 103.81,-500.83 107.53,-505.5 107.53,-505.5 107.53,-505.5 103.81,-500.83 104.02,-508.31 101.3,-497.69"/>
</g>
<!-- s512 -->
<g id="node24" class="node">
<title>s512</title>
<g id="a_node24"><a xlink:title="Order Not shipped">
<ellipse fill="white" stroke="black" cx="173.2" cy="-487.8" rx="10.8" ry="10.8"/>
<text text-anchor="middle" x="173.2" y="-483.93" font-family="Helvetica,sans-Serif" font-size="10.00" fill="#212529"> </text>
</a>
</g>
</g>
<!-- m111&#45;&gt;s512 -->
<g id="edge28" class="edge">
<title>m111&#45;&gt;s512</title>
<g id="a_edge28"><a xlink:title="[after retry] every 5s during 5s">
<path fill="none" stroke="red" stroke-width="0.8" d="M147.2,-534.2C151.71,-526.32 157.67,-515.92 162.74,-507.07"/>
<polygon fill="red" stroke="red" stroke-width="0.8" points="167.66,-498.47 166.6,-509.38 165.66,-501.96 162.69,-507.15 162.69,-507.15 162.69,-507.15 165.66,-501.96 158.79,-504.91 167.66,-498.47"/>
</a>
</g>
</g>
<!-- m112 -->
<g id="node12" class="node">
<title>m112</title>
<g id="a_node12"><a xlink:title="com.doertutorial.OrderProcessor.startOrderProcessing">
<polygon fill="#e9ecef" stroke="#343a40" points="345.52,-918 238.88,-918 238.88,-892.35 345.52,-892.35 345.52,-918"/>
<text text-anchor="middle" x="292.2" y="-901.3" font-family="Helvetica,sans-Serif" font-size="10.00" fill="#212529">startOrderProcessing</text>
</a>
</g>
</g>
<!-- s504 -->
<g id="node16" class="node">
<title>s504</title>
<g id="a_node16"><a xlink:title="Order processing started">
<ellipse fill="white" stroke="black" cx="292.2" cy="-845.55" rx="10.8" ry="10.8"/>
<text text-anchor="middle" x="292.2" y="-841.67" font-family="Helvetica,sans-Serif" font-size="10.00" fill="#212529"> </text>
</a>
</g>
</g>
<!-- m112&#45;&gt;s504 -->
<g id="edge30" class="edge">
<title>m112&#45;&gt;s504</title>
<path fill="none" stroke="black" stroke-width="0.8" d="M292.2,-891.95C292.2,-884.94 292.2,-875.94 292.2,-867.8"/>
<polygon fill="black" stroke="black" stroke-width="0.8" points="292.2,-857.8 296.7,-867.8 292.2,-861.83 292.2,-867.8 292.2,-867.8 292.2,-867.8 292.2,-861.83 287.7,-867.8 292.2,-857.8"/>
</g>
<!-- s501&#45;&gt;m104 -->
<g id="edge11" class="edge">
<title>s501&#45;&gt;m104</title>
<path fill="none" stroke="black" stroke-width="0.8" d="M267.2,-716.3C263.17,-709.04 257.34,-698.54 252.13,-689.16"/>
<polygon fill="black" stroke="black" stroke-width="0.8" points="247.3,-680.47 256.09,-687.02 249.26,-683.99 252.16,-689.21 252.16,-689.21 252.16,-689.21 249.26,-683.99 248.22,-691.39 247.3,-680.47"/>
</g>
<!-- s502&#45;&gt;m112 -->
<g id="edge29" class="edge">
<title>s502&#45;&gt;m112</title>
<path fill="none" stroke="black" stroke-width="0.8" d="M292.2,-953.76C292.2,-946.93 292.2,-937.61 292.2,-929.03"/>
<polygon fill="black" stroke="black" stroke-width="0.8" points="292.2,-919.06 296.7,-929.06 292.2,-923.09 292.2,-929.06 292.2,-929.06 292.2,-929.06 292.2,-923.09 287.7,-929.06 292.2,-919.06"/>
</g>
<!-- s503&#45;&gt;m111 -->
<g id="edge26" class="edge">
<title>s503&#45;&gt;m111</title>
<path fill="none" stroke="black" stroke-width="0.8" d="M168.04,-597.05C163.85,-589.72 157.75,-579.07 152.33,-569.61"/>
<polygon fill="black" stroke="black" stroke-width="0.8" points="147.52,-561.21 156.4,-567.65 149.52,-564.7 152.49,-569.89 152.49,-569.89 152.49,-569.89 149.52,-564.7 148.59,-572.12 147.52,-561.21"/>
</g>
<!-- s504&#45;&gt;m109 -->
<g id="edge22" class="edge">
<title>s504&#45;&gt;m109</title>
<path fill="none" stroke="black" stroke-width="0.8" d="M292.2,-834.51C292.2,-827.68 292.2,-818.36 292.2,-809.78"/>
<polygon fill="black" stroke="black" stroke-width="0.8" points="292.2,-799.81 296.7,-809.81 292.2,-803.84 292.2,-809.81 292.2,-809.81 292.2,-809.81 292.2,-803.84 287.7,-809.81 292.2,-799.81"/>
</g>
<!-- s505&#45;&gt;m103 -->
<g id="edge9" class="edge">
<title>s505&#45;&gt;m103</title>
<path fill="none" stroke="black" stroke-width="0.8" d="M88.45,-478.3C83.49,-470.97 76.12,-460.08 69.58,-450.42"/>
<polygon fill="black" stroke="black" stroke-width="0.8" points="63.98,-442.14 73.31,-447.9 66.23,-445.47 69.58,-450.42 69.58,-450.42 69.58,-450.42 66.23,-445.47 65.85,-452.95 63.98,-442.14"/>
</g>
<!-- s506&#45;&gt;m101 -->
<g id="edge1" class="edge">
<title>s506&#45;&gt;m101</title>
<path fill="none" stroke="black" stroke-width="0.8" d="M341.16,-536.56C330.34,-501.53 293.59,-382.47 278.14,-332.4"/>
<polygon fill="black" stroke="black" stroke-width="0.8" points="275.22,-322.96 282.47,-331.19 276.41,-326.81 278.17,-332.52 278.17,-332.52 278.17,-332.52 276.41,-326.81 273.87,-333.84 275.22,-322.96"/>
</g>
<!-- s507&#45;&gt;m101 -->
<g id="edge2" class="edge">
<title>s507&#45;&gt;m101</title>
<path fill="none" stroke="black" stroke-width="0.8" d="M271.2,-417.18C271.2,-398.63 271.2,-358.45 271.2,-332.88"/>
<polygon fill="black" stroke="black" stroke-width="0.8" points="271.2,-322.94 275.7,-332.94 271.2,-326.97 271.2,-332.94 271.2,-332.94 271.2,-332.94 271.2,-326.97 266.7,-332.94 271.2,-322.94"/>
</g>
<!-- s508&#45;&gt;m101 -->
<g id="edge3" class="edge">
<title>s508&#45;&gt;m101</title>
<path fill="none" stroke="black" stroke-width="0.8" d="M216.8,-360.48C225.13,-352.75 238.84,-340 250.41,-329.25"/>
<polygon fill="black" stroke="black" stroke-width="0.8" points="257.64,-322.53 253.38,-332.63 254.69,-325.27 250.31,-329.34 250.31,-329.34 250.31,-329.34 254.69,-325.27 247.25,-326.04 257.64,-322.53"/>
</g>
<!-- s509&#45;&gt;m102 -->
<g id="edge6" class="edge">
<title>s509&#45;&gt;m102</title>
<path fill="none" stroke="black" stroke-width="0.8" d="M271.2,-238.26C271.2,-231.43 271.2,-222.11 271.2,-213.53"/>
<polygon fill="black" stroke="black" stroke-width="0.8" points="271.2,-203.56 275.7,-213.56 271.2,-207.59 271.2,-213.56 271.2,-213.56 271.2,-213.56 271.2,-207.59 266.7,-213.56 271.2,-203.56"/>
</g>
<!-- s510&#45;&gt;m105 -->
<g id="edge14" class="edge">
<title>s510&#45;&gt;m105</title>
<path fill="none" stroke="black" stroke-width="0.8" d="M271.2,-119.01C271.2,-112.18 271.2,-102.86 271.2,-94.28"/>
<polygon fill="black" stroke="black" stroke-width="0.8" points="271.2,-84.31 275.7,-94.31 271.2,-88.34 271.2,-94.31 271.2,-94.31 271.2,-94.31 271.2,-88.34 266.7,-94.31 271.2,-84.31"/>
</g>
<!-- s511&#45;&gt;m106 -->
<g id="edge16" class="edge">
<title>s511&#45;&gt;m106</title>
<path fill="none" stroke="red" stroke-width="0.8" d="M330.91,-715.52C332.85,-708.57 335.52,-698.94 337.96,-690.14"/>
<polygon fill="red" stroke="red" stroke-width="0.8" points="340.6,-680.64 342.26,-691.48 339.52,-684.52 337.92,-690.27 337.92,-690.27 337.92,-690.27 339.52,-684.52 333.59,-689.07 340.6,-680.64"/>
</g>
<!-- s512&#45;&gt;m108 -->
<g id="edge20" class="edge">
<title>s512&#45;&gt;m108</title>
<path fill="none" stroke="red" stroke-width="0.8" d="M175.29,-476.76C176.73,-469.86 178.7,-460.4 180.5,-451.74"/>
<polygon fill="red" stroke="red" stroke-width="0.8" points="182.52,-442.04 184.89,-452.75 181.7,-445.98 180.48,-451.83 180.48,-451.83 180.48,-451.83 181.7,-445.98 176.08,-450.92 182.52,-442.04"/>
</g>
<!-- s513&#45;&gt;m107 -->
<g id="edge18" class="edge">
<title>s513&#45;&gt;m107</title>
<path fill="none" stroke="red" stroke-width="0.8" d="M247.07,-596.01C247.67,-589.11 248.49,-579.65 249.24,-570.99"/>
<polygon fill="red" stroke="red" stroke-width="0.8" points="250.08,-561.31 253.7,-571.66 249.73,-565.32 249.22,-571.27 249.22,-571.27 249.22,-571.27 249.73,-565.32 244.73,-570.88 250.08,-561.31"/>
</g>
</g>
</svg>
